<?xml version="1.0" standalone="no"?>
<!DOCTYPE svg PUBLIC "-//W3C//DTD SVG 20010904//EN"
 "http://www.w3.org/TR/2001/REC-SVG-20010904/DTD/svg10.dtd">
<svg version="1.0" xmlns="http://www.w3.org/2000/svg"
 width="891.000000pt" height="891.000000pt" viewBox="0 0 891.000000 891.000000"
 preserveAspectRatio="xMidYMid meet">
<metadata>
Created by potrace 1.11, written by Peter Selinger 2001-2013
</metadata>
<g transform="translate(0.000000,891.000000) scale(0.100000,-0.100000)"
fill="#000000" stroke="none">
<path d="M4208 8905 c-2 -2 -43 -6 -93 -10 -49 -3 -101 -8 -115 -10 -14 -2
-47 -6 -75 -10 -104 -11 -141 -16 -190 -25 -27 -5 -68 -12 -90 -15 -22 -3 -68
-12 -102 -20 -35 -8 -77 -17 -93 -20 -78 -14 -394 -109 -525 -158 -598 -224
-1108 -540 -1540 -957 -341 -328 -583 -641 -828 -1070 -60 -104 -157 -308
-227 -475 -106 -255 -232 -692 -264 -920 -7 -50 -17 -115 -21 -137 -2 -9 -7
-48 -10 -85 -4 -37 -9 -70 -10 -73 -2 -3 -7 -55 -11 -115 -15 -205 -9 -668 11
-820 2 -16 7 -52 10 -80 87 -719 365 -1435 793 -2033 40 -57 80 -111 87 -120
184 -228 186 -230 285 -336 72 -77 238 -240 314 -307 125 -113 376 -303 505
-383 25 -16 75 -48 111 -71 110 -70 371 -209 480 -254 30 -13 73 -32 95 -42
188 -85 526 -193 795 -254 123 -28 285 -55 415 -70 28 -3 66 -7 85 -10 156
-19 594 -26 775 -12 109 9 205 18 225 22 8 2 44 6 80 10 68 7 91 11 118 19 9
3 39 7 65 11 103 13 399 90 597 155 272 90 583 227 788 349 29 17 55 31 57 31
21 0 372 240 510 349 207 163 471 417 620 596 22 27 45 53 50 59 93 100 337
450 425 611 18 33 36 65 41 71 19 24 161 319 212 441 61 145 133 348 172 488
14 50 29 106 35 125 28 100 86 390 95 481 3 23 7 58 10 78 23 159 29 270 29
536 0 212 -10 470 -19 485 -2 3 -6 33 -10 65 -19 183 -74 464 -126 639 -12 38
-22 76 -24 85 -8 41 -73 229 -120 351 -213 544 -515 1021 -915 1444 -405 429
-861 754 -1403 1000 -95 43 -353 146 -367 146 -6 0 -18 4 -28 9 -16 8 -101 35
-252 80 -67 19 -312 77 -365 85 -32 5 -117 19 -125 21 -4 1 -108 15 -155 20
-5 1 -46 5 -90 9 -44 4 -91 10 -105 13 -27 5 -587 13 -592 8z"/>
</g>
</svg>
